<?xml version="1.0" encoding="UTF-8"?><svg id="Layer_1" xmlns="http://www.w3.org/2000/svg" viewBox="0 0 48 9"><path d="m1.88,2.84c0,.1.05.21.08.27.27.41.86.84,2.07.84h.06v.36c0,.16-.08.32-.22.43-.08.06-.19.11-.33.11-.11,0-.23-.03-.38-.1-.49-.25-.96-.8-1.35-1.53.01.05.02.08.11.44.35,1.28,1,1.28,1.09,2.02,0,.04,0,.08,0,.13,0,.5-.34.84-.38.85h.04c.11,0,.43-.03.65-.62.1-.28.34-.4.6-.4h.01c.06,0,.48.02.53.37v.92s-.17-.12-.6-.12c-.17,0-.38.02-.64.06-.25.04-.51.06-.76.06h-.99s.27-.64.27-1.43c0-.22-.02-.46-.08-.7-.17-.72-.21-1.16-.21-1.5,0-.08,0-.15,0-.23v-.05c.04-.32.3-.56.62-.59.3,0,.41.04.7.08.26.04.5.06.7.06.59,0,.98-.12.98-.12v.59c0,.31-.29.68-.58.68h-.04c-.11,0-.43-.04-.75-.43-.29-.36-.5-.6-.74-.65-.04-.01-.09-.02-.14-.02-.11,0-.24.03-.29.11-.03.05-.04.09-.04.15Z" style="stroke-width:0px;"/><path d="m7.38,6.13v.77s-.25-.16-.67-.16c-.13,0-.27.02-.43.06-.34.09-.98.1-.98.1h-.54s.39-.66.39-2.12c0-.2,0-.41-.02-.64-.09-1.24-.37-1.73-.37-1.73h.98c.32,0,.63.38.63,1.01,0,.12-.01.25-.04.39-.08.45-.39.8-.84,1.63-.08.15-.33.62-.34.85v.04c0,.25.09.39.23.39.07,0,.16-.04.26-.12.1-.09.24-.35.26-.4.33-.77.76-.79.76-.79.2,0,.38.08.51.21.13.12.21.31.21.51Z" style="stroke-width:0px;"/><path d="m7.54,6.9s.48-.76.48-1.61c0-.29-.06-.6-.21-.88-.13-.24-.21-.47-.27-.68-.07-.26-.09-.49-.09-.68,0-.39.09-.63.09-.63h1.22s-.64.7-.64,1.76c0,.09,0,.18.02.27.03.27.15.5.26.66.46.69.69,1.12.69,1.8h-1.54Z" style="stroke-width:0px;"/><path d="m12.91,2.42s-.46.57-.46,1.51c0,.3.05.64.17,1,.17.49.28.88.28,1.2,0,.14-.03.28-.08.4-.05.12-.25.37-.56.37h-1.15c.26-.4.44-.78.44-1.23,0-.35-.12-.74-.42-1.21h0c-.11-.18-.21-.34-.29-.49h0c-.32-.59-.29-.85-.4-1.12-.07-.15-.26-.23-.44-.23-.17,0-.33.07-.37.21-.02.05-.02.09-.02.14,0,.27.22.5.42.73.86.97,1.06,1.7,1.06,2.15,0,.1-.01.18-.03.25-.08.38-.46.8-.76.8h-1.02c.26-.55.35-1.13.35-1.69,0-.76-.17-1.49-.33-2.02-.02-.07-.03-.13-.03-.2,0-.31.23-.58.66-.58h.14c.38,0,.62.2.67.49.07.37.23.89.66,1.36.39.42,1.09.98,1.2,1.6v-.03c0-.11-.02-.56-.35-.95-.22-.27-.55-.61-.77-.94-.19-.29-.33-.6-.33-.93,0-.04,0-.07,0-.11v-.02c.02-.25.25-.46.54-.46h1.21Z" style="stroke-width:0px;"/><path d="m14.98,6.57c-.04-.1-.07-.22-.07-.37,0-.32.15-.74.67-1.21.4-.35.56-.81.56-1.23,0-.59-.34-1.1-.82-1.1-.04,0-.09,0-.14.02,0,0,.63.26.63.82,0,.14-.04.28-.12.45-.25.5-1.29.93-1.29,1.86,0,.3.11.66.41,1.09h-.55c-.58,0-1.07-.48-1.07-1.06,0-.78.6-1.31,1.84-1.79.4-.16.56-.36.56-.56,0-.13-.07-.26-.17-.39-.04-.06-.14-.13-.26-.13s-.25.07-.37.27c-.19.31-.45.51-.65.59-.05.02-.1.03-.15.03-.3,0-.58-.33-.58-.66v-.78s.34.14.85.14c.22,0,.46-.02.73-.09.11-.03.23-.05.35-.05.51,0,.93.37,1.01.86.05.19.06.41.06.61,0,.35-.05.63-.05.63-.14.55-.19,1-.19,1.34,0,.76.24,1.04.24,1.04h-.98c-.21,0-.4-.13-.48-.33Z" style="stroke-width:0px;"/><path d="m19.94,2.42c.89,0,1.29.56,1.29,1.09,0,.23-.07.45-.21.62-.24.3-.64.43-.99.43-.25,0-.48-.06-.62-.18,0,0-.78-.52-.97-1.58,0,.47.32,1.41.86,2.09.42.53.55.96.55,1.27,0,.5-.32.74-.32.74h-1.35s.42-.67.42-1.63c0-.17-.02-.33-.04-.51-.02-.13-.4-1.08-.4-1.98,0-.12,0-.24.02-.36h1.76Zm.3.99s0-.04,0-.06c0-.46-.43-.77-.9-.77h-.77c.04.21.21.75.53,1.1.13.15.35.2.54.2.05,0,.1,0,.14-.01.22-.04.43-.22.45-.45Z" style="stroke-width:0px;"/><path d="m21.97,2.84c0,.1.05.21.08.27.27.41.86.84,2.07.84h.06v.36c0,.16-.08.32-.22.43-.08.06-.19.11-.33.11-.11,0-.23-.03-.38-.1-.49-.25-.96-.8-1.35-1.53.01.05.02.08.12.44.35,1.28,1,1.28,1.08,2.02,0,.04,0,.08,0,.13,0,.5-.34.84-.38.85h.04c.11,0,.43-.03.65-.62.1-.28.34-.4.6-.4h.01c.06,0,.48.02.53.37v.92s-.17-.12-.6-.12c-.17,0-.38.02-.64.06-.25.04-.51.06-.76.06h-.99s.27-.64.27-1.43c0-.22-.02-.46-.08-.7-.17-.72-.21-1.16-.21-1.5,0-.08,0-.15,0-.23v-.05c.04-.32.3-.56.62-.59.3,0,.41.04.7.08.26.04.5.06.7.06.6,0,.98-.12.98-.12v.59c0,.31-.29.68-.58.68h-.04c-.11,0-.43-.04-.75-.43-.29-.36-.5-.6-.74-.65-.04-.01-.09-.02-.14-.02-.12,0-.24.03-.29.11-.03.05-.04.09-.04.15Z" style="stroke-width:0px;"/><path d="m28.42,6.44c0,.28-.09.46-.09.46h-1.39c.18-.27.25-.53.25-.79,0-.9-.9-1.66-1.04-1.77-.18-.14-.76-.65-.92-1.54,0,.47.32,1.41.86,2.09.42.54.55.96.55,1.27,0,.5-.32.74-.32.74h-1.35s.38-.66.38-1.61c0-.17-.01-.34-.04-.52-.04-.25-.37-1.09-.37-1.96,0-.14.01-.27.03-.4h.39s.07.72.54,1.25c.11.13.29.19.44.19.08,0,.16-.02.21-.05.18-.1.25-.24.25-.4,0-.33-.32-.74-.47-1h1.25s.28.27.36.6c.02.09.03.18.04.27v.04c0,.61-.51,1.06-1.09,1.06-.11,0-.23-.02-.35-.06-.06-.02-.1-.04-.15-.06.02.01.03.02.05.04.1.07.21.14.33.2,1.41.7,1.67,1.46,1.67,1.93Z" style="stroke-width:0px;"/><path d="m32.11,6.44c0,.28-.09.46-.09.46h-1.39c.18-.27.25-.53.25-.79,0-.9-.9-1.66-1.04-1.77-.18-.14-.76-.65-.92-1.54,0,.47.32,1.41.86,2.09.42.54.55.96.55,1.27,0,.5-.32.74-.32.74h-1.35s.38-.66.38-1.61c0-.17-.01-.34-.04-.52-.04-.25-.37-1.09-.37-1.96,0-.14.01-.27.03-.4h.39s.07.72.54,1.25c.11.13.29.19.44.19.08,0,.16-.02.21-.05.18-.1.25-.24.25-.4,0-.33-.32-.74-.47-1h1.25s.28.27.36.6c.02.09.03.18.04.27v.04c0,.61-.51,1.06-1.09,1.06-.11,0-.23-.02-.35-.06-.06-.02-.1-.04-.15-.06.02.01.03.02.05.04.1.07.21.14.33.2,1.41.7,1.67,1.46,1.67,1.93Z" style="stroke-width:0px;"/><path d="m34.11,6.57c-.04-.1-.07-.22-.07-.37,0-.32.15-.74.67-1.21.4-.35.56-.81.56-1.23,0-.59-.34-1.1-.82-1.1-.04,0-.09,0-.14.02,0,0,.63.26.63.82,0,.14-.04.28-.12.45-.25.5-1.29.93-1.29,1.86,0,.3.12.66.41,1.09h-.55c-.58,0-1.07-.48-1.07-1.06,0-.78.61-1.31,1.84-1.79.4-.16.56-.36.56-.56,0-.13-.07-.26-.17-.39-.04-.06-.14-.13-.25-.13s-.25.07-.37.27c-.19.31-.45.51-.65.59-.05.02-.1.03-.15.03-.3,0-.58-.33-.58-.66v-.78s.34.14.85.14c.22,0,.46-.02.73-.09.11-.03.23-.05.35-.05.51,0,.93.37,1.01.86.05.19.06.41.06.61,0,.35-.05.63-.05.63-.14.55-.19,1-.19,1.34,0,.76.24,1.04.24,1.04h-.98c-.21,0-.4-.13-.47-.33Z" style="stroke-width:0px;"/><path d="m39.53,2.42s-.46.57-.46,1.51c0,.3.05.64.17,1,.17.49.28.88.28,1.2,0,.14-.03.28-.08.4-.05.12-.25.37-.56.37h-1.15c.26-.4.44-.78.44-1.23,0-.35-.12-.74-.42-1.21h0c-.11-.18-.21-.34-.29-.49h0c-.32-.59-.29-.85-.4-1.12-.07-.15-.26-.23-.44-.23-.17,0-.33.07-.37.21-.02.05-.02.09-.02.14,0,.27.22.5.42.73.86.97,1.07,1.7,1.07,2.15,0,.1-.01.18-.03.25-.08.38-.46.8-.76.8h-1.02c.26-.55.35-1.13.35-1.69,0-.76-.17-1.49-.33-2.02-.02-.07-.03-.13-.03-.2,0-.31.23-.58.66-.58h.14c.38,0,.62.2.67.49.07.37.24.89.66,1.36.39.42,1.08.98,1.2,1.6v-.03c0-.11-.02-.56-.35-.95-.22-.27-.55-.61-.77-.94-.19-.29-.33-.6-.33-.93,0-.04,0-.07,0-.11v-.02c.02-.25.25-.46.54-.46h1.21Z" style="stroke-width:0px;"/><path d="m40.25,2.84c0,.1.05.21.08.27.27.41.86.84,2.07.84h.06v.36c0,.16-.08.32-.22.43-.08.06-.19.11-.33.11-.11,0-.23-.03-.38-.1-.49-.25-.96-.8-1.35-1.53.01.05.02.08.12.44.35,1.28,1,1.28,1.08,2.02,0,.04,0,.08,0,.13,0,.5-.34.84-.38.85h.04c.11,0,.43-.03.65-.62.1-.28.34-.4.6-.4h.01c.06,0,.48.02.53.37v.92s-.17-.12-.6-.12c-.17,0-.38.02-.64.06-.25.04-.51.06-.76.06h-.99s.27-.64.27-1.43c0-.22-.02-.46-.08-.7-.17-.72-.21-1.16-.21-1.5,0-.08,0-.15,0-.23v-.05c.04-.32.3-.56.62-.59.3,0,.41.04.7.08.26.04.5.06.7.06.6,0,.98-.12.98-.12v.59c0,.31-.29.68-.58.68h-.04c-.11,0-.43-.04-.75-.43-.29-.36-.5-.6-.74-.65-.04-.01-.09-.02-.14-.02-.11,0-.24.03-.29.11-.03.05-.04.09-.04.15Z" style="stroke-width:0px;"/><path d="m46.84,2.42s-.46.57-.46,1.51c0,.3.05.64.17,1,.17.49.28.88.28,1.2,0,.14-.03.28-.08.4-.05.12-.25.37-.56.37h-1.15c.26-.4.44-.78.44-1.23,0-.35-.12-.74-.42-1.21h0c-.11-.18-.21-.34-.29-.49h0c-.32-.59-.29-.85-.4-1.12-.07-.15-.26-.23-.44-.23-.17,0-.33.07-.37.21-.02.05-.02.09-.02.14,0,.27.22.5.42.73.86.97,1.07,1.7,1.07,2.15,0,.1-.01.18-.03.25-.08.38-.46.8-.76.8h-1.02c.26-.55.35-1.13.35-1.69,0-.76-.17-1.49-.33-2.02-.02-.07-.03-.13-.03-.2,0-.31.23-.58.66-.58h.14c.38,0,.62.2.67.49.07.37.24.89.66,1.36.39.42,1.08.98,1.2,1.6v-.03c0-.11-.02-.56-.35-.95-.22-.27-.55-.61-.77-.94-.19-.29-.33-.6-.33-.93,0-.04,0-.07,0-.11v-.02c.02-.25.25-.46.54-.46h1.21Z" style="stroke-width:0px;"/></svg>