<?xml version="1.0" encoding="UTF-8"?><svg id="Layer_1" xmlns="http://www.w3.org/2000/svg" viewBox="0 0 48 9"><path d="m2.36,4.27c-.07,0-.12.03-.16.08-.03.06-.05.12-.06.19s-.01.14,0,.22c0,.07,0,.12,0,.16,0,.07,0,.13.02.2.01.06.03.12.06.17.03.05.07.09.11.12.05.03.1.04.17.04.11,0,.19-.03.25-.09.06-.06.12-.13.18-.2.06-.07.13-.14.22-.2.08-.06.2-.09.35-.09.16,0,.29.09.4.27.1.18.16.42.16.72,0,.49-.12.84-.37,1.07-.25.23-.64.34-1.18.34-.5,0-.89-.1-1.15-.29-.26-.19-.4-.49-.4-.88,0-.14.02-.28.06-.41s.08-.27.13-.4c.05-.13.09-.26.13-.38.04-.12.06-.25.06-.36s-.02-.22-.05-.3-.07-.17-.1-.26-.07-.17-.1-.27-.05-.21-.05-.33c0-.15.03-.29.09-.41.06-.13.15-.24.27-.33.12-.1.27-.17.45-.23.18-.06.39-.08.63-.08s.45.01.61.04c.16.03.29.07.38.11.09.05.16.11.2.18.04.07.05.15.05.24,0,.14-.04.25-.11.34s-.18.13-.3.13c-.08,0-.16-.02-.24-.05-.08-.03-.16-.07-.23-.11-.08-.04-.15-.08-.22-.11-.07-.03-.12-.05-.17-.05-.07,0-.13.03-.18.09-.05.06-.07.16-.07.3,0,.07,0,.13.02.17s.05.07.1.07c.05,0,.1,0,.15-.03.05-.02.1-.03.16-.05s.12-.04.18-.05c.06-.01.13-.02.2-.02.16,0,.27.03.35.08.08.05.12.15.12.29,0,.07,0,.13-.02.19-.02.06-.04.11-.09.16-.04.04-.1.08-.17.1-.07.03-.17.04-.29.04-.15,0-.27-.02-.35-.06-.09-.04-.15-.06-.19-.06Z" style="stroke-width:0px;"/><path d="m5.38,4.05c0,.18,0,.35.02.52.01.17.03.32.07.45.03.13.08.24.13.32.06.08.12.12.2.12.05,0,.1-.02.13-.07.03-.05.07-.1.1-.16.04-.06.08-.11.13-.16.05-.05.12-.07.21-.07.12,0,.22.03.3.1s.15.15.2.25c.05.11.09.23.11.36.02.14.04.27.04.42,0,.19-.04.37-.11.52-.07.15-.17.28-.3.38-.13.1-.28.18-.45.23-.18.05-.36.08-.57.08-.41,0-.73-.1-.97-.31-.24-.2-.35-.49-.35-.85,0-.14.02-.3.05-.5s.07-.4.1-.61c.04-.21.07-.41.1-.6s.05-.35.05-.48c0-.11-.01-.22-.03-.32-.02-.1-.04-.19-.07-.28-.03-.09-.05-.17-.07-.26-.02-.09-.03-.18-.03-.27,0-.19.05-.33.15-.44.1-.11.25-.16.47-.16s.36.06.45.17c.09.11.13.26.13.44,0,.11,0,.2-.03.28-.02.08-.04.16-.06.24s-.04.17-.06.27c-.02.1-.03.22-.03.36Z" style="stroke-width:0px;"/><path d="m8.01,7.32c-.15,0-.28-.02-.39-.07-.11-.05-.2-.11-.28-.19-.07-.08-.13-.17-.17-.28-.04-.11-.05-.22-.05-.34,0-.2.03-.4.1-.62s.13-.42.21-.63c.07-.21.14-.42.21-.62.06-.21.1-.41.1-.6,0-.1-.01-.19-.04-.29s-.05-.19-.09-.28c-.03-.09-.06-.19-.09-.28-.03-.09-.04-.19-.04-.29,0-.15.05-.28.14-.38.09-.11.22-.16.39-.16.2,0,.35.06.44.18.1.12.15.26.15.43,0,.1-.01.2-.04.3s-.05.2-.09.3c-.03.1-.06.2-.09.3s-.04.2-.04.3c0,.16.03.33.08.51.06.18.12.37.18.56.07.19.13.39.18.58.05.19.08.38.08.57,0,.12-.02.24-.05.36-.04.12-.09.22-.16.32s-.16.17-.28.23-.24.09-.39.09Z" style="stroke-width:0px;"/><path d="m10.55,4.12s-.05.02-.07.05-.03.08-.03.14c0,.09.02.23.07.4.05.17.1.35.16.54.06.19.12.38.17.56.05.18.07.33.07.44,0,.33-.08.59-.23.76-.15.18-.4.26-.74.26-.3,0-.53-.08-.68-.25s-.22-.41-.22-.71c0-.15.02-.32.07-.52.05-.2.1-.41.15-.62.05-.22.1-.43.15-.64.05-.21.07-.4.07-.57,0-.12-.01-.22-.03-.31-.02-.09-.05-.17-.08-.25-.03-.08-.06-.16-.08-.23-.02-.08-.04-.17-.04-.26,0-.08.01-.16.04-.24s.06-.15.12-.21c.05-.06.12-.11.2-.15s.18-.06.3-.06c.19,0,.33.03.43.09.1.06.15.14.15.24,0,.07,0,.12-.03.16s-.03.09-.03.17c0,.03.02.07.05.14.03.07.08.15.13.23.05.09.11.18.18.27.07.09.13.18.19.26.06.08.12.14.17.19.05.05.09.08.12.08.03,0,.05-.02.07-.05.02-.03.03-.08.04-.13,0-.05.02-.1.02-.16,0-.06,0-.11,0-.15,0-.08,0-.16-.02-.23s-.03-.13-.05-.19c-.02-.06-.03-.11-.05-.16-.01-.05-.02-.1-.02-.15,0-.18.05-.32.15-.44.1-.11.25-.17.47-.17.17,0,.32.05.44.14.12.09.18.21.18.36,0,.08,0,.16-.03.23-.02.07-.04.14-.07.21-.03.07-.05.15-.07.23s-.03.18-.03.3c0,.06.01.16.04.29.03.13.06.27.1.42.04.16.09.32.13.5.05.18.09.35.13.51.04.17.08.32.1.47.03.15.04.27.04.36,0,.35-.09.6-.26.75-.17.15-.41.23-.71.23-.25,0-.46-.07-.62-.22s-.24-.35-.24-.63c0-.12.01-.24.04-.34.03-.1.05-.2.08-.3.03-.1.05-.19.08-.28.03-.09.04-.18.04-.27,0-.08-.03-.18-.1-.3-.07-.12-.14-.25-.23-.36-.08-.12-.17-.22-.25-.3-.08-.08-.14-.13-.17-.13Z" style="stroke-width:0px;"/><path d="m14.73,5.07s0,.11.02.21c.01.1.03.21.04.32.02.12.03.23.04.35s.02.21.02.29c0,.14-.02.27-.07.41-.05.13-.12.25-.21.35s-.19.18-.31.24c-.12.06-.25.09-.39.09-.11,0-.21-.02-.31-.07-.1-.05-.19-.11-.26-.19-.07-.08-.13-.17-.17-.28-.04-.11-.06-.22-.06-.34,0-.16.02-.29.06-.41s.08-.22.14-.31c.05-.09.11-.18.18-.26.06-.08.12-.17.17-.26.05-.1.1-.2.14-.32.04-.12.07-.24.1-.37.03-.13.05-.25.06-.38s.02-.25.02-.36c0-.24.02-.44.05-.62s.09-.32.16-.44c.08-.12.18-.21.31-.27.13-.06.29-.09.48-.09.18,0,.33.03.45.1.12.06.22.15.29.26.07.11.13.24.16.39.03.15.04.31.04.49,0,.24.01.46.04.65.03.19.05.37.09.51.03.16.09.3.16.43.08.13.15.26.24.39.08.13.15.26.21.4s.09.3.09.47c0,.15-.03.28-.08.38s-.12.19-.21.25c-.09.07-.18.11-.29.14-.11.03-.21.04-.32.04-.11,0-.22-.03-.33-.08s-.2-.12-.28-.22c-.08-.1-.14-.21-.19-.35s-.07-.29-.07-.46c0-.15,0-.28.02-.39.01-.11.03-.2.05-.29.02-.08.03-.16.05-.23.01-.07.02-.15.02-.23v-.1s0-.06-.02-.09c-.01-.03-.03-.05-.05-.06-.02-.02-.06-.03-.1-.03-.06,0-.11.03-.13.08-.02.06-.03.13-.03.23Zm.4-1.47c0-.07-.02-.14-.06-.22s-.09-.11-.15-.11c-.04,0-.08.02-.11.05-.03.03-.05.07-.07.12s-.03.1-.04.15c0,.05-.01.1-.01.14,0,.03,0,.07,0,.11,0,.04.01.08.03.11.02.03.04.06.06.08.03.02.06.03.1.03.06,0,.1-.02.13-.05.03-.03.05-.07.07-.12.01-.05.02-.1.03-.15,0-.05,0-.1,0-.14Z" style="stroke-width:0px;"/><path d="m20.11,4.75s-.05,0-.06.03-.02.04-.02.06,0,.05.01.07c0,.03.01.04.02.06.03.06.08.16.13.29.05.13.1.26.15.4s.09.28.13.41c.04.13.05.24.05.31,0,.15-.02.28-.07.4-.05.12-.12.22-.2.3-.09.08-.19.14-.31.18-.12.04-.25.06-.39.06-.16,0-.29-.02-.39-.07s-.19-.11-.25-.19-.11-.19-.13-.31-.04-.26-.04-.42c0-.14.02-.29.07-.48.04-.18.09-.37.15-.57.05-.2.1-.39.15-.57.04-.18.07-.34.07-.48s0-.24-.03-.34c-.02-.09-.04-.18-.06-.27-.02-.08-.04-.17-.06-.25-.02-.08-.03-.18-.03-.29,0-.13.03-.25.09-.34.06-.1.14-.18.24-.24.1-.06.21-.11.34-.14.12-.03.25-.04.38-.04.22,0,.41.04.6.11.18.08.34.18.47.32.13.14.24.3.31.49s.11.39.11.61c0,.18-.01.33-.04.46s-.07.24-.13.32c-.06.08-.15.15-.26.19-.11.04-.24.06-.41.06-.08,0-.14,0-.2-.02-.05-.02-.1-.03-.14-.05-.04-.02-.08-.03-.11-.05-.04-.02-.08-.02-.12-.02Zm-.13-1.27c0,.08,0,.16.02.24.01.08.03.15.05.22s.05.12.09.16c.03.04.08.06.13.06.06,0,.11-.02.16-.05.04-.03.08-.08.11-.14s.05-.12.07-.19c.02-.07.02-.14.02-.22,0-.14-.04-.27-.1-.37s-.15-.16-.25-.16c-.11,0-.18.04-.22.1s-.06.19-.06.35Z" style="stroke-width:0px;"/><path d="m23.07,4.27c-.07,0-.12.03-.16.08-.03.06-.05.12-.06.19-.01.07-.01.14,0,.22,0,.07,0,.12,0,.16,0,.07,0,.13.02.2.01.06.03.12.06.17.03.05.07.09.11.12.05.03.1.04.17.04.11,0,.19-.03.25-.09.06-.06.12-.13.18-.2.06-.07.13-.14.22-.2.08-.06.2-.09.36-.09.16,0,.29.09.4.27.1.18.16.42.16.72,0,.49-.12.84-.37,1.07-.25.23-.64.34-1.18.34-.5,0-.89-.1-1.15-.29-.26-.19-.4-.49-.4-.88,0-.14.02-.28.06-.41s.08-.27.13-.4c.05-.13.09-.26.13-.38.04-.12.06-.25.06-.36s-.02-.22-.05-.3c-.03-.09-.07-.17-.1-.26s-.07-.17-.1-.27c-.03-.1-.05-.21-.05-.33,0-.15.03-.29.09-.41.06-.13.15-.24.27-.33s.27-.17.45-.23c.18-.06.39-.08.63-.08s.45.01.61.04c.16.03.29.07.38.11.09.05.16.11.2.18s.05.15.05.24c0,.14-.04.25-.11.34s-.17.13-.3.13c-.08,0-.16-.02-.24-.05-.08-.03-.16-.07-.23-.11-.08-.04-.15-.08-.22-.11-.07-.03-.12-.05-.17-.05-.07,0-.13.03-.18.09-.05.06-.07.16-.07.3,0,.07,0,.13.02.17.02.05.05.07.11.07.05,0,.1,0,.15-.03.05-.02.11-.03.16-.05.06-.02.12-.04.18-.05s.13-.02.2-.02c.16,0,.28.03.36.08s.12.15.12.29c0,.07,0,.13-.02.19-.01.06-.04.11-.09.16s-.1.08-.17.1c-.07.03-.17.04-.29.04-.15,0-.27-.02-.35-.06-.09-.04-.15-.06-.19-.06Z" style="stroke-width:0px;"/><path d="m27.54,7.26c-.1,0-.2-.02-.3-.05-.1-.03-.18-.08-.26-.14-.07-.06-.13-.14-.18-.22-.04-.09-.07-.19-.07-.29,0-.07.02-.16.05-.26.03-.1.07-.21.11-.33.04-.12.07-.25.1-.38.03-.13.05-.26.05-.39,0-.1-.01-.2-.04-.29-.03-.09-.07-.18-.11-.25-.04-.07-.09-.13-.14-.17-.05-.04-.1-.06-.15-.06-.03,0-.05.01-.07.03-.02.02-.04.05-.05.07-.01.03-.02.06-.02.09,0,.03,0,.05,0,.07,0,.11.01.24.04.4.02.16.05.32.08.49.03.17.06.34.08.49.02.16.04.29.04.4,0,.12-.01.24-.04.34s-.07.19-.13.27c-.06.08-.15.14-.26.18-.11.04-.24.06-.41.06-.29,0-.52-.09-.67-.27s-.23-.42-.23-.73c0-.19.03-.4.1-.61.07-.21.14-.42.22-.63.08-.21.15-.41.22-.6.07-.19.1-.36.1-.51,0-.11-.01-.22-.03-.32-.02-.1-.04-.19-.07-.28s-.04-.17-.07-.26-.03-.16-.03-.24c0-.08.02-.16.05-.23.03-.07.08-.13.13-.19.06-.06.12-.1.2-.13.07-.03.15-.04.23-.04.17,0,.3.05.42.14.11.1.17.25.17.47,0,.07,0,.14-.02.21-.01.07-.03.13-.05.2-.02.07-.04.13-.05.2-.01.07-.02.14-.02.21,0,.06.02.11.06.15.04.04.08.05.1.05.06,0,.12-.03.17-.09.06-.06.11-.13.16-.22.05-.09.08-.18.11-.29s.04-.2.04-.29c0-.07,0-.15.02-.23.01-.08.03-.16.07-.23.03-.07.08-.13.15-.18.07-.05.15-.07.26-.07.12,0,.22.02.29.05s.14.08.19.14.08.12.1.19c.02.07.03.14.03.22,0,.3-.06.53-.19.7-.13.17-.29.3-.48.39-.09.04-.18.07-.27.1-.09.03-.19.05-.3.06.03,0,.07,0,.11.02.05.01.09.02.14.03.05.01.09.03.13.04.04.01.07.03.09.04.33.18.58.44.75.78.17.34.26.73.26,1.16,0,.33-.07.59-.21.76-.14.18-.37.26-.71.26Z" style="stroke-width:0px;"/><path d="m31.17,7.26c-.1,0-.2-.02-.3-.05-.1-.03-.18-.08-.26-.14-.07-.06-.13-.14-.18-.22-.04-.09-.07-.19-.07-.29,0-.07.02-.16.05-.26.03-.1.07-.21.11-.33.04-.12.07-.25.1-.38.03-.13.05-.26.05-.39,0-.1-.01-.2-.04-.29-.03-.09-.07-.18-.11-.25-.04-.07-.09-.13-.14-.17-.05-.04-.1-.06-.15-.06-.03,0-.05.01-.07.03-.02.02-.04.05-.05.07-.01.03-.02.06-.02.09,0,.03,0,.05,0,.07,0,.11.01.24.04.4.02.16.05.32.08.49.03.17.06.34.08.49.02.16.04.29.04.4,0,.12-.01.24-.04.34s-.07.19-.13.27c-.06.08-.15.14-.26.18-.11.04-.24.06-.41.06-.29,0-.52-.09-.67-.27s-.23-.42-.23-.73c0-.19.03-.4.1-.61.07-.21.14-.42.22-.63.08-.21.15-.41.22-.6.07-.19.1-.36.1-.51,0-.11-.01-.22-.03-.32-.02-.1-.04-.19-.07-.28s-.04-.17-.07-.26-.03-.16-.03-.24c0-.08.02-.16.05-.23.03-.07.08-.13.13-.19.06-.06.12-.1.2-.13.07-.03.15-.04.23-.04.17,0,.3.05.42.14.11.1.17.25.17.47,0,.07,0,.14-.02.21-.01.07-.03.13-.05.2-.02.07-.04.13-.05.2-.01.07-.02.14-.02.21,0,.06.02.11.06.15.04.04.08.05.1.05.06,0,.12-.03.17-.09.06-.06.11-.13.16-.22.05-.09.08-.18.11-.29s.04-.2.04-.29c0-.07,0-.15.02-.23.01-.08.03-.16.07-.23.03-.07.08-.13.15-.18.07-.05.15-.07.26-.07.12,0,.22.02.29.05s.14.08.19.14.08.12.1.19c.02.07.03.14.03.22,0,.3-.06.53-.19.7-.13.17-.29.3-.48.39-.09.04-.18.07-.27.1-.09.03-.19.05-.3.06.03,0,.07,0,.11.02.05.01.09.02.14.03.05.01.09.03.13.04.04.01.07.03.09.04.33.18.58.44.75.78.17.34.26.73.26,1.16,0,.33-.07.59-.21.76-.14.18-.37.26-.71.26Z" style="stroke-width:0px;"/><path d="m33.85,5.07s0,.11.02.21c.01.1.03.21.04.32.02.12.03.23.04.35s.02.21.02.29c0,.14-.02.27-.07.41-.05.13-.12.25-.21.35s-.19.18-.31.24c-.12.06-.25.09-.39.09-.11,0-.21-.02-.31-.07-.1-.05-.19-.11-.26-.19-.07-.08-.13-.17-.17-.28-.04-.11-.06-.22-.06-.34,0-.16.02-.29.06-.41s.08-.22.14-.31c.05-.09.11-.18.18-.26.06-.08.12-.17.17-.26.06-.1.1-.2.14-.32.04-.12.07-.24.1-.37.03-.13.05-.25.06-.38s.02-.25.02-.36c0-.24.02-.44.05-.62.03-.18.09-.32.16-.44.08-.12.18-.21.31-.27.13-.06.29-.09.48-.09.18,0,.33.03.45.1.12.06.22.15.29.26.07.11.13.24.16.39s.04.31.04.49c0,.24.01.46.04.65.03.19.05.37.09.51.03.16.09.3.17.43.08.13.15.26.23.39.08.13.15.26.21.4.06.14.09.3.09.47,0,.15-.03.28-.08.38s-.12.19-.21.25c-.08.07-.18.11-.29.14-.11.03-.21.04-.32.04-.11,0-.22-.03-.33-.08s-.2-.12-.28-.22c-.08-.1-.14-.21-.19-.35-.05-.14-.07-.29-.07-.46,0-.15,0-.28.02-.39s.03-.2.05-.29c.02-.08.03-.16.05-.23s.02-.15.02-.23v-.1s0-.06-.02-.09-.03-.05-.05-.06c-.02-.02-.06-.03-.1-.03-.06,0-.11.03-.13.08-.02.06-.04.13-.04.23Zm.4-1.47c0-.07-.02-.14-.06-.22s-.09-.11-.15-.11c-.04,0-.08.02-.11.05-.03.03-.05.07-.07.12-.02.05-.03.1-.04.15s-.01.1-.01.14c0,.03,0,.07,0,.11,0,.04.01.08.03.11.01.03.04.06.06.08.03.02.06.03.1.03.05,0,.1-.02.13-.05.03-.03.05-.07.07-.12s.02-.1.03-.15c0-.05,0-.1,0-.14Z" style="stroke-width:0px;"/><path d="m37.45,4.12s-.05.02-.07.05c-.02.03-.03.08-.03.14,0,.09.02.23.07.4s.1.35.17.54c.06.19.12.38.17.56.05.18.07.33.07.44,0,.33-.08.59-.23.76-.15.18-.4.26-.74.26-.3,0-.53-.08-.68-.25-.15-.17-.22-.41-.22-.71,0-.15.02-.32.07-.52.05-.2.1-.41.15-.62.05-.22.1-.43.15-.64.05-.21.07-.4.07-.57,0-.12-.01-.22-.04-.31-.02-.09-.05-.17-.08-.25-.03-.08-.06-.16-.08-.23s-.04-.17-.04-.26c0-.08.01-.16.04-.24s.06-.15.12-.21c.05-.06.12-.11.2-.15.08-.04.18-.06.3-.06.19,0,.33.03.43.09.1.06.15.14.15.24,0,.07,0,.12-.03.16-.02.04-.03.09-.03.17,0,.03.02.07.05.14.03.07.08.15.13.23.05.09.11.18.18.27.07.09.13.18.19.26.06.08.12.14.17.19s.09.08.12.08c.03,0,.05-.02.07-.05.02-.03.03-.08.04-.13,0-.05.01-.1.02-.16,0-.06,0-.11,0-.15,0-.08,0-.16-.02-.23-.01-.07-.03-.13-.05-.19-.02-.06-.03-.11-.05-.16-.01-.05-.02-.1-.02-.15,0-.18.05-.32.15-.44.1-.11.25-.17.47-.17.17,0,.32.05.44.14.12.09.18.21.18.36,0,.08,0,.16-.03.23-.02.07-.04.14-.07.21-.03.07-.05.15-.07.23-.02.08-.03.18-.03.3,0,.06.01.16.04.29.03.13.06.27.1.42.04.16.09.32.13.5.05.18.09.35.13.51.04.17.08.32.11.47.03.15.04.27.04.36,0,.35-.09.6-.26.75-.17.15-.41.23-.71.23-.25,0-.46-.07-.62-.22-.16-.14-.24-.35-.24-.63,0-.12.01-.24.04-.34.02-.1.05-.2.08-.3.03-.1.05-.19.08-.28.03-.09.04-.18.04-.27,0-.08-.03-.18-.1-.3-.07-.12-.14-.25-.23-.36-.08-.12-.17-.22-.25-.3-.08-.08-.14-.13-.17-.13Z" style="stroke-width:0px;"/><path d="m41.42,4.27c-.07,0-.12.03-.16.08-.03.06-.05.12-.06.19-.01.07-.01.14,0,.22,0,.07,0,.12,0,.16,0,.07,0,.13.02.2.01.06.03.12.06.17.03.05.07.09.11.12.05.03.1.04.17.04.11,0,.19-.03.25-.09.06-.06.12-.13.18-.2.06-.07.13-.14.22-.2.08-.06.2-.09.36-.09.16,0,.29.09.4.27.1.18.16.42.16.72,0,.49-.12.84-.37,1.07-.25.23-.64.34-1.18.34-.5,0-.89-.1-1.15-.29-.26-.19-.4-.49-.4-.88,0-.14.02-.28.06-.41s.08-.27.13-.4c.05-.13.09-.26.13-.38.04-.12.06-.25.06-.36s-.02-.22-.05-.3c-.03-.09-.07-.17-.1-.26s-.07-.17-.1-.27c-.03-.1-.05-.21-.05-.33,0-.15.03-.29.09-.41.06-.13.15-.24.27-.33s.27-.17.45-.23c.18-.06.39-.08.63-.08s.45.01.61.04c.16.03.29.07.38.11.09.05.16.11.2.18s.05.15.05.24c0,.14-.04.25-.11.34s-.17.13-.3.13c-.08,0-.16-.02-.24-.05-.08-.03-.16-.07-.23-.11-.08-.04-.15-.08-.22-.11-.07-.03-.12-.05-.17-.05-.07,0-.13.03-.18.09-.05.06-.07.16-.07.3,0,.07,0,.13.02.17.02.05.05.07.11.07.05,0,.1,0,.15-.03.05-.02.11-.03.16-.05.06-.02.12-.04.18-.05s.13-.02.2-.02c.16,0,.28.03.36.08s.12.15.12.29c0,.07,0,.13-.02.19-.01.06-.04.11-.09.16s-.1.08-.17.1c-.07.03-.17.04-.29.04-.15,0-.27-.02-.35-.06-.09-.04-.15-.06-.19-.06Z" style="stroke-width:0px;"/><path d="m44.78,4.12s-.05.02-.07.05c-.02.03-.03.08-.03.14,0,.09.02.23.07.4s.1.35.17.54c.06.19.12.38.17.56.05.18.07.33.07.44,0,.33-.08.59-.23.76-.15.18-.4.26-.74.26-.3,0-.53-.08-.68-.25-.15-.17-.22-.41-.22-.71,0-.15.02-.32.07-.52.05-.2.1-.41.15-.62.05-.22.1-.43.15-.64.05-.21.07-.4.07-.57,0-.12-.01-.22-.04-.31-.02-.09-.05-.17-.08-.25-.03-.08-.06-.16-.08-.23s-.04-.17-.04-.26c0-.08.01-.16.04-.24s.06-.15.12-.21c.05-.06.12-.11.2-.15.08-.04.18-.06.3-.06.19,0,.33.03.43.09.1.06.15.14.15.24,0,.07,0,.12-.03.16-.02.04-.03.09-.03.17,0,.03.02.07.05.14.03.07.08.15.13.23.05.09.11.18.18.27.07.09.13.18.19.26.06.08.12.14.17.19s.09.08.12.08c.03,0,.05-.02.07-.05.02-.03.03-.08.04-.13,0-.05.01-.1.02-.16,0-.06,0-.11,0-.15,0-.08,0-.16-.02-.23-.01-.07-.03-.13-.05-.19-.02-.06-.03-.11-.05-.16-.01-.05-.02-.1-.02-.15,0-.18.05-.32.15-.44.1-.11.25-.17.47-.17.17,0,.32.05.44.14.12.09.18.21.18.36,0,.08,0,.16-.03.23-.02.07-.04.14-.07.21-.03.07-.05.15-.07.23-.02.08-.03.18-.03.3,0,.06.01.16.04.29.03.13.06.27.1.42.04.16.09.32.13.5.05.18.09.35.13.51.04.17.08.32.11.47.03.15.04.27.04.36,0,.35-.09.6-.26.75-.17.15-.41.23-.71.23-.25,0-.46-.07-.62-.22-.16-.14-.24-.35-.24-.63,0-.12.01-.24.04-.34.02-.1.05-.2.08-.3.03-.1.05-.19.08-.28.03-.09.04-.18.04-.27,0-.08-.03-.18-.1-.3-.07-.12-.14-.25-.23-.36-.08-.12-.17-.22-.25-.3-.08-.08-.14-.13-.17-.13Z" style="stroke-width:0px;"/></svg>