<?xml version="1.0" encoding="UTF-8"?><svg id="Layer_1" xmlns="http://www.w3.org/2000/svg" viewBox="0 0 30 16.06"><path d="m6.34,4.3c-.1,0-.17.04-.21.11-.04.07-.07.16-.09.26s-.02.19-.01.29c0,.1,0,.17,0,.21,0,.09,0,.18.03.26.02.08.04.16.08.23.04.07.09.12.15.16.06.04.14.06.23.06.14,0,.25-.04.33-.12.08-.08.16-.17.24-.27.08-.1.18-.19.29-.27.11-.08.27-.12.48-.12.22,0,.39.12.53.36.14.24.21.56.21.97,0,.65-.17,1.13-.5,1.44-.34.3-.87.46-1.59.46-.68,0-1.19-.13-1.55-.39s-.53-.66-.53-1.19c0-.19.03-.37.08-.55s.11-.36.17-.53c.06-.17.12-.34.17-.51.05-.17.08-.33.08-.49s-.02-.29-.06-.41c-.04-.12-.09-.23-.14-.35s-.1-.23-.14-.36c-.04-.13-.06-.28-.06-.45,0-.2.04-.38.12-.55.08-.17.2-.32.36-.45.16-.13.36-.23.61-.3.24-.07.53-.11.85-.11s.61.02.82.06c.21.04.38.09.51.15.13.07.22.15.26.24s.07.2.07.32c0,.19-.05.34-.15.45s-.24.17-.4.17c-.11,0-.22-.02-.32-.06-.11-.04-.21-.09-.32-.14-.1-.05-.2-.1-.29-.15s-.17-.06-.23-.06c-.1,0-.18.04-.24.12-.06.08-.09.21-.09.4,0,.09.01.17.03.23s.07.1.14.1c.07,0,.14-.01.2-.03.07-.02.14-.05.22-.07.08-.03.16-.05.24-.07.08-.02.17-.03.27-.03.21,0,.37.04.48.11s.16.2.16.39c0,.09,0,.18-.03.26-.02.08-.06.15-.12.21s-.14.11-.24.14-.23.05-.39.05c-.2,0-.36-.03-.47-.08-.12-.05-.2-.08-.26-.08Z" style="stroke-width:0px;"/><path d="m10.4,4c0,.24,0,.47.02.7.02.23.05.43.09.61.04.18.1.32.17.43.07.11.17.16.27.16.07,0,.13-.03.18-.1.04-.07.09-.14.14-.22.05-.08.11-.15.17-.22.07-.07.16-.1.28-.1.16,0,.29.04.41.13.11.09.2.2.27.34.07.14.12.3.15.49.03.18.05.37.05.56,0,.26-.05.49-.14.7-.1.2-.23.38-.4.52-.17.14-.37.24-.61.32s-.49.11-.76.11c-.55,0-.99-.14-1.31-.41-.32-.28-.48-.65-.48-1.14,0-.18.02-.41.06-.67.04-.26.09-.54.14-.81s.09-.55.14-.81c.04-.26.06-.47.06-.64,0-.15-.01-.3-.04-.43-.03-.13-.06-.25-.09-.37-.03-.12-.07-.23-.09-.35-.03-.12-.04-.24-.04-.36,0-.25.07-.45.2-.59.13-.15.34-.22.63-.22s.48.08.6.23c.12.15.17.35.17.6,0,.14-.01.27-.04.38-.03.11-.05.22-.09.33s-.06.23-.09.36c-.03.13-.04.29-.04.49Z" style="stroke-width:0px;"/><path d="m13.94,8.41c-.2,0-.37-.03-.52-.09-.15-.06-.27-.15-.37-.25-.1-.11-.17-.23-.22-.38s-.07-.3-.07-.46c0-.27.04-.54.13-.83s.18-.57.28-.85.19-.56.28-.84c.09-.28.13-.55.13-.8,0-.13-.02-.26-.05-.39s-.07-.25-.12-.38c-.04-.13-.08-.25-.12-.38-.03-.12-.05-.26-.05-.39,0-.2.06-.37.19-.52s.3-.22.53-.22c.27,0,.47.08.6.24.13.16.2.35.2.58,0,.14-.02.27-.05.41s-.07.27-.12.41c-.04.14-.08.27-.11.41s-.05.27-.05.4c0,.21.04.44.11.68.07.24.16.5.25.75.09.26.17.52.25.78.07.26.11.52.11.77,0,.17-.02.33-.07.49-.05.16-.12.3-.22.43-.1.12-.22.23-.37.3-.15.08-.33.11-.53.11Z" style="stroke-width:0px;"/><path d="m17.36,4.11s-.06.02-.09.06c-.03.04-.04.11-.04.19,0,.13.03.3.1.53s.14.47.22.73c.08.26.16.51.22.75.06.25.1.44.1.59,0,.45-.1.79-.31,1.03-.2.24-.53.35-.99.35-.41,0-.71-.11-.91-.34-.2-.23-.3-.55-.3-.96,0-.2.03-.43.09-.7.06-.27.13-.55.2-.84.07-.29.14-.58.2-.86.06-.28.09-.54.09-.76,0-.16-.02-.3-.05-.41-.03-.12-.07-.23-.11-.33-.04-.11-.07-.21-.11-.32s-.05-.22-.05-.35c0-.11.02-.21.05-.32s.09-.2.16-.28c.07-.08.16-.15.27-.2.11-.05.25-.08.41-.08.25,0,.44.04.58.12.13.08.2.19.2.33,0,.09-.01.16-.04.21-.03.05-.04.13-.04.22,0,.03.02.1.07.19.05.09.1.2.17.31.07.12.15.24.24.36.09.13.17.24.26.35.08.11.16.19.23.26.07.07.12.1.16.1.04,0,.07-.02.1-.07.03-.05.04-.1.06-.17.01-.07.02-.14.03-.22s0-.14,0-.2c0-.11,0-.22-.03-.31s-.04-.18-.06-.26c-.02-.08-.04-.15-.06-.22-.02-.07-.03-.13-.03-.2,0-.24.07-.44.2-.59.13-.15.34-.23.63-.23.23,0,.43.06.6.19.17.12.25.29.25.49,0,.11-.01.22-.04.31-.02.09-.06.18-.09.28-.03.1-.06.2-.09.31-.03.11-.04.25-.04.41,0,.09.02.21.06.38.04.17.08.36.14.57s.12.43.18.67c.06.24.12.47.18.69.06.23.1.44.14.63.04.2.06.36.06.48,0,.47-.12.8-.35,1.01-.23.21-.55.31-.96.31-.34,0-.62-.1-.84-.29-.22-.19-.33-.48-.33-.85,0-.16.02-.32.05-.46.03-.14.07-.27.11-.4s.07-.25.11-.38c.03-.12.05-.24.05-.36,0-.1-.05-.24-.14-.41-.09-.17-.19-.33-.31-.49-.11-.16-.23-.3-.34-.41-.11-.11-.19-.17-.23-.17Z" style="stroke-width:0px;"/><path d="m22.98,5.38c0,.05,0,.14.02.28.02.13.04.28.06.43.02.16.04.31.06.47s.03.28.03.38c0,.19-.03.37-.1.55-.07.18-.16.33-.28.47s-.26.25-.42.33c-.16.08-.34.12-.52.12-.15,0-.29-.03-.42-.09-.13-.06-.25-.15-.35-.26s-.18-.23-.23-.38c-.06-.14-.09-.29-.09-.45,0-.21.02-.39.08-.55s.11-.29.19-.42c.07-.12.15-.24.24-.35.09-.11.16-.23.23-.35.07-.13.14-.28.19-.43.05-.16.1-.32.14-.49.04-.17.06-.34.08-.52s.02-.34.02-.49c0-.32.02-.6.06-.83.04-.24.12-.44.22-.6.1-.16.24-.28.41-.36.17-.08.39-.12.64-.12.24,0,.44.04.6.13.16.08.29.2.39.35.1.15.17.32.21.52.04.2.06.42.06.66,0,.32.02.62.05.88.03.26.07.49.12.69.05.21.12.4.22.58.1.18.21.35.32.52s.2.35.28.54c.08.19.12.4.12.63,0,.2-.04.38-.11.52s-.17.25-.28.34c-.11.09-.24.15-.39.19s-.29.06-.43.06c-.15,0-.3-.03-.44-.1s-.26-.17-.37-.29c-.11-.13-.19-.28-.26-.47-.06-.18-.09-.39-.09-.61,0-.2,0-.38.03-.52.02-.15.04-.27.06-.39.02-.11.04-.22.06-.31s.03-.2.03-.3v-.14s0-.09-.02-.12c-.01-.03-.04-.06-.07-.09-.03-.02-.08-.03-.14-.03-.08,0-.14.04-.17.11-.03.07-.05.18-.05.32Zm.54-1.97c0-.1-.03-.19-.08-.29s-.12-.15-.2-.15c-.06,0-.11.02-.14.06-.04.04-.07.1-.1.16-.03.06-.04.13-.06.2-.01.07-.02.14-.02.19,0,.05,0,.1,0,.15,0,.05.02.1.04.15.02.04.05.08.09.11.04.03.08.04.14.04.07,0,.13-.02.18-.07.04-.05.07-.1.09-.16s.03-.13.04-.2c0-.07,0-.14,0-.19Z" style="stroke-width:0px;"/><path d="m5.41,11.73s-.04,0-.05.02-.01.03-.01.05,0,.04,0,.05c0,.02.01.03.01.04.03.05.06.12.1.21.04.09.08.2.11.3s.07.21.09.31c.03.1.04.18.04.23,0,.11-.02.21-.05.3-.04.09-.09.16-.15.22-.06.06-.14.11-.23.14-.09.03-.19.05-.29.05-.12,0-.21-.02-.29-.05s-.14-.08-.19-.14-.08-.14-.1-.23-.03-.19-.03-.31c0-.1.02-.22.05-.36.03-.14.07-.28.11-.43.04-.15.08-.29.11-.43.03-.14.05-.26.05-.36s0-.18-.02-.25c-.01-.07-.03-.14-.05-.2s-.03-.12-.05-.19c-.01-.06-.02-.14-.02-.22,0-.1.02-.18.07-.26s.11-.13.18-.18c.07-.05.16-.08.25-.1.09-.02.19-.03.28-.03.16,0,.31.03.45.09.14.06.25.14.35.24.1.1.18.22.23.36s.08.29.08.46c0,.13,0,.25-.03.34s-.05.18-.1.24c-.05.06-.11.11-.19.14-.08.03-.18.04-.31.04-.06,0-.11,0-.15-.02-.04-.01-.08-.02-.11-.04-.03-.01-.06-.02-.09-.04-.03-.01-.06-.02-.09-.02Zm-.1-.95c0,.06,0,.12.01.18,0,.06.02.11.04.16.02.05.04.09.06.12.03.03.06.04.09.04.04,0,.08-.01.12-.04.03-.03.06-.06.08-.1s.04-.09.05-.14.02-.11.02-.16c0-.11-.03-.2-.08-.28-.05-.08-.11-.12-.19-.12-.08,0-.14.03-.17.08s-.04.14-.04.26Z" style="stroke-width:0px;"/><path d="m7.63,11.37c-.05,0-.09.02-.12.06-.02.04-.04.09-.05.14s-.01.11,0,.16c0,.05,0,.09,0,.12,0,.05,0,.1.01.15,0,.05.02.09.05.13.02.04.05.07.09.09.04.02.08.03.13.03.08,0,.14-.02.18-.07.04-.05.09-.1.14-.15.05-.06.1-.11.16-.15.06-.05.15-.07.27-.07.12,0,.22.07.3.2.08.13.12.31.12.54,0,.36-.09.63-.28.8-.19.17-.48.25-.88.25-.38,0-.66-.07-.86-.22s-.3-.37-.3-.66c0-.1.01-.21.04-.31s.06-.2.09-.3c.04-.1.07-.19.09-.28.03-.09.04-.18.04-.27s-.01-.16-.04-.23c-.02-.07-.05-.13-.08-.19s-.05-.13-.08-.2c-.02-.07-.04-.15-.04-.25,0-.11.02-.21.07-.31.04-.09.11-.18.2-.25.09-.07.2-.13.34-.17.14-.04.29-.06.47-.06s.34.01.46.03c.12.02.21.05.28.09.07.04.12.08.15.13s.04.11.04.18c0,.1-.03.19-.09.25s-.13.09-.22.09c-.06,0-.12-.01-.18-.04-.06-.02-.12-.05-.18-.08-.06-.03-.11-.06-.16-.08s-.09-.04-.13-.04c-.05,0-.1.02-.13.07-.04.04-.05.12-.05.22,0,.05,0,.09.02.13s.04.05.08.05c.04,0,.08,0,.11-.02.04-.01.08-.03.12-.04.04-.01.09-.03.13-.04.05-.01.1-.02.15-.02.12,0,.21.02.27.06s.09.11.09.22c0,.05,0,.1-.02.14-.01.05-.03.09-.06.12s-.08.06-.13.08-.13.03-.22.03c-.11,0-.2-.01-.26-.04-.06-.03-.11-.04-.14-.04Z" style="stroke-width:0px;"/><path d="m10.97,13.61c-.08,0-.15-.01-.22-.04s-.14-.06-.19-.1c-.06-.05-.1-.1-.13-.17-.03-.06-.05-.14-.05-.22,0-.05.01-.12.04-.19.02-.08.05-.16.08-.25.03-.09.05-.18.08-.28.02-.1.04-.2.04-.29,0-.08-.01-.15-.03-.22-.02-.07-.05-.13-.08-.19-.03-.06-.07-.1-.11-.13-.04-.03-.07-.05-.11-.05-.02,0-.04,0-.05.02-.01.02-.03.03-.04.05,0,.02-.02.04-.02.06,0,.02,0,.04,0,.05,0,.08,0,.18.03.3s.04.24.06.37c.02.13.04.25.06.37.02.12.03.22.03.3,0,.09,0,.18-.03.25s-.05.14-.1.2-.11.1-.19.13c-.08.03-.18.05-.31.05-.22,0-.38-.07-.5-.2s-.17-.32-.17-.55c0-.15.02-.3.08-.46.05-.16.11-.31.17-.47s.12-.3.17-.45c.05-.14.08-.27.08-.38,0-.09,0-.16-.02-.24-.02-.07-.03-.14-.05-.21-.02-.07-.03-.13-.05-.19-.02-.06-.02-.12-.02-.18,0-.06.01-.12.04-.17.02-.05.06-.1.1-.14.04-.04.09-.07.15-.09.06-.02.11-.03.17-.03.12,0,.23.04.31.11s.13.19.13.35c0,.05,0,.11-.02.16-.01.05-.02.1-.04.15-.01.05-.03.1-.04.15-.01.05-.02.1-.02.16,0,.05.01.08.04.11.03.03.06.04.08.04.04,0,.09-.02.13-.06.04-.04.08-.1.12-.16.04-.07.06-.14.08-.21s.03-.15.03-.21c0-.05,0-.11.01-.17,0-.06.02-.12.05-.17.02-.05.06-.1.11-.14.05-.04.11-.05.2-.05.09,0,.16.01.22.04s.11.06.14.1c.04.04.06.09.07.14.01.05.02.11.02.16,0,.22-.05.4-.14.53-.09.13-.21.23-.36.29-.07.03-.13.05-.2.08-.07.02-.14.04-.22.04.02,0,.05,0,.09.01.03,0,.07.02.1.03.03,0,.07.02.1.03.03.01.06.02.07.03.25.13.44.33.56.58.13.25.19.54.19.87,0,.25-.05.44-.15.57-.1.13-.28.2-.53.2Z" style="stroke-width:0px;"/><path d="m13.68,13.61c-.08,0-.15-.01-.22-.04-.07-.02-.14-.06-.19-.1-.06-.05-.1-.1-.13-.17-.03-.06-.05-.14-.05-.22,0-.05.01-.12.04-.19.02-.08.05-.16.08-.25.03-.09.05-.18.08-.28.02-.1.04-.2.04-.29,0-.08-.01-.15-.03-.22-.02-.07-.05-.13-.08-.19-.03-.06-.07-.1-.11-.13-.04-.03-.07-.05-.11-.05-.02,0-.04,0-.05.02-.01.02-.03.03-.04.05,0,.02-.02.04-.02.06,0,.02,0,.04,0,.05,0,.08,0,.18.03.3.02.12.04.24.06.37.02.13.04.25.06.37.02.12.03.22.03.3,0,.09,0,.18-.03.25s-.05.14-.1.2-.11.1-.19.13c-.08.03-.18.05-.31.05-.22,0-.38-.07-.5-.2s-.17-.32-.17-.55c0-.15.03-.3.08-.46.05-.16.11-.31.17-.47.06-.15.12-.3.17-.45.05-.14.08-.27.08-.38,0-.09,0-.16-.02-.24-.02-.07-.03-.14-.05-.21s-.03-.13-.05-.19c-.02-.06-.02-.12-.02-.18,0-.06.01-.12.04-.17.02-.05.06-.1.1-.14.04-.04.09-.07.15-.09.05-.02.11-.03.17-.03.12,0,.23.04.31.11s.13.19.13.35c0,.05,0,.11-.02.16-.01.05-.02.1-.04.15-.01.05-.03.1-.04.15-.01.05-.02.1-.02.16,0,.05.02.08.05.11.03.03.06.04.08.04.04,0,.09-.02.13-.06.04-.04.08-.1.12-.16.03-.07.06-.14.08-.21.02-.08.03-.15.03-.21,0-.05,0-.11.01-.17,0-.06.02-.12.05-.17.03-.05.06-.1.11-.14.05-.04.11-.05.2-.05.09,0,.16.01.22.04s.11.06.14.1c.03.04.06.09.07.14.01.05.02.11.02.16,0,.22-.05.4-.14.53-.09.13-.21.23-.36.29-.07.03-.13.05-.2.08-.07.02-.14.04-.22.04.02,0,.05,0,.09.01s.07.02.1.03.07.02.1.03c.03.01.06.02.07.03.25.13.43.33.56.58.13.25.19.54.19.87,0,.25-.05.44-.15.57-.1.13-.28.2-.53.2Z" style="stroke-width:0px;"/><path d="m15.69,11.97s0,.08.01.15c0,.07.02.15.03.24s.02.17.03.26.01.16.01.21c0,.1-.02.21-.05.3-.04.1-.09.18-.15.26s-.14.14-.23.18c-.09.05-.19.07-.29.07-.08,0-.16-.02-.23-.05-.07-.04-.14-.08-.19-.14-.06-.06-.1-.13-.13-.21-.03-.08-.05-.16-.05-.25,0-.12.01-.22.04-.3s.06-.16.1-.23c.04-.07.08-.14.13-.2.05-.06.09-.13.13-.19.04-.07.08-.15.11-.24.03-.09.05-.18.08-.27.02-.09.04-.19.04-.29s.01-.19.01-.27c0-.18.01-.33.04-.46.02-.13.06-.24.12-.33.06-.09.13-.16.23-.2.1-.04.22-.07.36-.07.13,0,.24.02.33.07.09.05.16.11.22.19s.09.18.12.29.03.23.03.37c0,.18,0,.34.03.49.02.15.04.27.07.38.03.12.07.22.12.32.06.1.12.2.18.29.06.1.11.2.16.3.04.1.07.22.07.35,0,.11-.02.21-.06.29-.04.08-.09.14-.16.19-.06.05-.14.08-.22.1-.08.02-.16.03-.24.03-.09,0-.17-.02-.24-.06s-.15-.09-.21-.16c-.06-.07-.11-.16-.14-.26-.04-.1-.05-.22-.05-.34,0-.11,0-.21.02-.29s.02-.15.04-.22.02-.12.04-.17c.01-.05.02-.11.02-.17v-.08s0-.05-.01-.07-.02-.03-.04-.05c-.02-.01-.04-.02-.08-.02-.05,0-.08.02-.1.06-.02.04-.03.1-.03.18Zm.3-1.1c0-.05-.01-.11-.04-.16s-.06-.08-.11-.08c-.03,0-.06.01-.08.04s-.04.05-.05.09c-.01.03-.02.07-.03.11s0,.08,0,.11c0,.03,0,.05,0,.08,0,.03.01.06.02.08s.03.04.05.06c.02.02.05.02.08.02.04,0,.07-.01.1-.04.02-.03.04-.06.05-.09.01-.03.02-.07.02-.11,0-.04,0-.08,0-.11Z" style="stroke-width:0px;"/><path d="m18.38,11.26s-.04.01-.05.04c-.01.02-.02.06-.02.11,0,.07.02.17.05.3.04.13.08.26.12.41.05.14.09.28.12.42.04.14.05.24.05.33,0,.25-.06.44-.17.57-.11.13-.3.2-.55.2-.23,0-.4-.06-.51-.19-.11-.13-.17-.3-.17-.53,0-.11.02-.24.05-.39s.07-.31.11-.47c.04-.16.08-.32.11-.48.04-.16.05-.3.05-.42,0-.09,0-.17-.03-.23-.02-.06-.04-.13-.06-.19-.02-.06-.04-.12-.06-.18-.02-.06-.03-.12-.03-.2,0-.06,0-.12.03-.18s.05-.11.09-.15c.04-.04.09-.08.15-.11.06-.03.14-.04.22-.04.14,0,.25.02.32.07.07.05.11.11.11.18,0,.05,0,.09-.02.12-.01.03-.02.07-.02.12,0,.02.01.05.04.1.02.05.06.11.1.17.04.06.08.13.13.2.05.07.1.13.14.19.05.06.09.11.13.14s.07.06.09.06c.02,0,.04-.01.05-.04.01-.03.02-.06.03-.09s.01-.08.01-.12c0-.04,0-.08,0-.11,0-.06,0-.12-.02-.17s-.02-.1-.04-.14c-.01-.04-.02-.09-.04-.12-.01-.04-.02-.07-.02-.11,0-.13.04-.24.11-.33.07-.09.19-.13.35-.13.13,0,.24.03.33.1.09.07.14.16.14.27,0,.06,0,.12-.02.17-.01.05-.03.1-.05.16-.02.05-.04.11-.05.17-.01.06-.02.14-.02.23,0,.05.01.12.03.21.02.09.05.2.08.32.03.12.06.24.1.37.03.13.07.26.1.38.03.13.06.24.08.35.02.11.03.2.03.27,0,.26-.06.45-.19.56-.13.11-.31.17-.53.17-.19,0-.35-.05-.47-.16-.12-.11-.18-.27-.18-.47,0-.09,0-.18.03-.25.02-.08.04-.15.06-.22.02-.07.04-.14.06-.21.02-.07.03-.14.03-.2,0-.06-.03-.13-.08-.23-.05-.09-.11-.18-.17-.27-.06-.09-.13-.16-.19-.23-.06-.06-.1-.09-.13-.09Z" style="stroke-width:0px;"/><path d="m21.35,11.37c-.05,0-.09.02-.12.06-.02.04-.04.09-.05.14s-.01.11,0,.16c0,.05,0,.09,0,.12,0,.05,0,.1.01.15,0,.05.02.09.05.13.02.04.05.07.09.09.04.02.08.03.13.03.08,0,.14-.02.18-.07.04-.05.09-.1.14-.15.05-.06.1-.11.16-.15.06-.05.15-.07.27-.07.12,0,.22.07.3.2.08.13.12.31.12.54,0,.36-.09.63-.28.8-.19.17-.48.25-.88.25-.38,0-.66-.07-.86-.22s-.3-.37-.3-.66c0-.1.01-.21.04-.31s.06-.2.09-.3c.04-.1.07-.19.09-.28.03-.09.04-.18.04-.27s-.01-.16-.04-.23c-.02-.07-.05-.13-.08-.19s-.05-.13-.08-.2c-.02-.07-.04-.15-.04-.25,0-.11.02-.21.07-.31.04-.09.11-.18.2-.25.09-.07.2-.13.34-.17.14-.04.29-.06.47-.06s.34.01.46.03c.12.02.21.05.28.09.07.04.12.08.15.13s.04.11.04.18c0,.1-.03.19-.09.25s-.13.09-.22.09c-.06,0-.12-.01-.18-.04-.06-.02-.12-.05-.18-.08-.06-.03-.11-.06-.16-.08s-.09-.04-.13-.04c-.05,0-.1.02-.13.07-.04.04-.05.12-.05.22,0,.05,0,.09.02.13s.04.05.08.05c.04,0,.08,0,.11-.02.04-.01.08-.03.12-.04.04-.01.09-.03.13-.04.05-.01.1-.02.15-.02.12,0,.21.02.27.06s.09.11.09.22c0,.05,0,.1-.02.14-.01.05-.03.09-.06.12s-.08.06-.13.08-.13.03-.22.03c-.11,0-.2-.01-.26-.04-.06-.03-.11-.04-.14-.04Z" style="stroke-width:0px;"/><path d="m23.85,11.26s-.04.01-.05.04c-.01.02-.02.06-.02.11,0,.07.02.17.05.3s.08.26.12.41c.05.14.09.28.12.42.04.14.05.24.05.33,0,.25-.06.44-.17.57-.11.13-.3.2-.55.2-.23,0-.4-.06-.51-.19-.11-.13-.17-.3-.17-.53,0-.11.02-.24.05-.39.03-.15.07-.31.11-.47.04-.16.08-.32.11-.48.03-.16.05-.3.05-.42,0-.09,0-.17-.03-.23-.02-.06-.04-.13-.06-.19-.02-.06-.04-.12-.06-.18s-.03-.12-.03-.2c0-.06,0-.12.03-.18s.05-.11.09-.15c.04-.04.09-.08.15-.11.06-.03.14-.04.23-.04.14,0,.25.02.32.07.07.05.11.11.11.18,0,.05,0,.09-.02.12-.01.03-.02.07-.02.12,0,.02.01.05.04.1.03.05.06.11.1.17.04.06.08.13.13.2.05.07.1.13.14.19.05.06.09.11.13.14.04.04.07.06.09.06.02,0,.04-.01.05-.04.01-.03.02-.06.03-.09,0-.04.01-.08.01-.12s0-.08,0-.11c0-.06,0-.12-.02-.17s-.02-.1-.04-.14c-.01-.04-.02-.09-.04-.12-.01-.04-.02-.07-.02-.11,0-.13.04-.24.11-.33.07-.09.19-.13.35-.13.13,0,.24.03.33.1.09.07.14.16.14.27,0,.06,0,.12-.02.17-.01.05-.03.1-.05.16-.02.05-.04.11-.05.17-.01.06-.02.14-.02.23,0,.05.01.12.03.21.02.09.05.2.08.32s.06.24.1.37c.04.13.07.26.1.38.03.13.06.24.08.35.02.11.03.2.03.27,0,.26-.06.45-.19.56-.13.11-.31.17-.53.17-.19,0-.35-.05-.47-.16-.12-.11-.18-.27-.18-.47,0-.09,0-.18.03-.25.02-.08.04-.15.06-.22s.04-.14.06-.21c.02-.07.03-.14.03-.2,0-.06-.03-.13-.08-.23-.05-.09-.11-.18-.17-.27-.06-.09-.13-.16-.19-.23-.06-.06-.1-.09-.13-.09Z" style="stroke-width:0px;"/></svg>