<?xml version="1.0" encoding="UTF-8"?><svg id="Layer_1" xmlns="http://www.w3.org/2000/svg" viewBox="0 0 30 16.06"><path d="m3.71,2.95c0,.16.07.34.13.42.43.65,1.35,1.31,3.24,1.31h.09v.57c0,.25-.12.51-.34.67-.13.1-.3.17-.52.17-.17,0-.37-.05-.6-.16-.76-.38-1.51-1.25-2.11-2.41.02.08.03.13.18.69.55,2.01,1.57,2.01,1.7,3.18,0,.07,0,.13,0,.2,0,.78-.54,1.32-.6,1.33h.06c.17,0,.68-.05,1.02-.97.16-.44.53-.63.94-.63h.02c.1,0,.75.02.84.57v1.44s-.26-.19-.94-.19c-.27,0-.6.02-1,.09-.39.06-.79.1-1.19.1h-1.56s.43-1.01.43-2.24c0-.35-.03-.73-.12-1.1-.27-1.14-.34-1.82-.34-2.36,0-.12,0-.24,0-.35v-.08c.06-.5.47-.88.97-.93.47,0,.64.06,1.1.13.4.06.78.09,1.11.09.93,0,1.54-.19,1.54-.19v.93c0,.49-.46,1.07-.91,1.07h-.07c-.17,0-.68-.06-1.18-.68-.45-.56-.79-.93-1.16-1.02-.06-.02-.14-.03-.22-.03-.18,0-.38.05-.46.17-.04.07-.06.15-.06.23Z" style="stroke-width:0px;"/><path d="m12.34,8.12v1.2s-.39-.25-1.05-.25c-.2,0-.43.02-.68.09-.54.14-1.53.16-1.53.16h-.85s.61-1.03.61-3.33c0-.31,0-.64-.03-1-.14-1.94-.57-2.71-.57-2.71h1.54c.5,0,.98.59.98,1.59,0,.19-.02.39-.06.61-.12.71-.61,1.25-1.32,2.55-.13.24-.52.97-.53,1.33v.07c0,.38.14.61.37.61.11,0,.25-.06.41-.2.16-.14.38-.56.4-.63.52-1.2,1.2-1.24,1.2-1.24.31,0,.59.13.79.34.2.2.33.48.33.79Z" style="stroke-width:0px;"/><path d="m12.61,9.32s.75-1.2.75-2.53c0-.46-.09-.93-.33-1.38-.2-.38-.34-.74-.43-1.07-.11-.4-.14-.77-.14-1.07,0-.61.14-.98.14-.98h1.91s-1,1.1-1,2.76c0,.14,0,.28.02.42.04.43.23.78.4,1.03.72,1.08,1.09,1.76,1.09,2.83h-2.42Z" style="stroke-width:0px;"/><path d="m21.03,2.29s-.72.9-.72,2.38c0,.47.07,1,.26,1.57.26.77.44,1.38.44,1.88,0,.22-.04.43-.12.62-.08.18-.38.58-.88.58h-1.8c.4-.62.7-1.22.7-1.92,0-.55-.19-1.16-.66-1.9h0c-.18-.28-.34-.53-.46-.76h0c-.5-.93-.45-1.33-.63-1.75-.11-.24-.41-.36-.7-.36-.27,0-.52.11-.58.33-.02.07-.03.15-.03.22,0,.42.34.78.66,1.14,1.35,1.52,1.67,2.67,1.67,3.37,0,.15-.02.29-.04.39-.13.59-.72,1.25-1.2,1.25h-1.6c.41-.86.56-1.77.56-2.64,0-1.2-.27-2.33-.52-3.17-.03-.11-.04-.21-.04-.31,0-.49.36-.91,1.03-.91h.22c.6,0,.97.32,1.06.76.11.58.37,1.4,1.04,2.14.61.66,1.7,1.54,1.88,2.51v-.05c0-.18-.03-.88-.55-1.49-.35-.43-.86-.96-1.2-1.48-.29-.45-.52-.93-.52-1.46,0-.06,0-.11,0-.17v-.03c.03-.39.38-.72.84-.72h1.89Z" style="stroke-width:0px;"/><path d="m24.27,8.8c-.06-.16-.11-.35-.11-.57,0-.51.24-1.16,1.06-1.9.62-.56.88-1.28.88-1.93,0-.93-.53-1.72-1.29-1.72-.07,0-.14,0-.21.02,0,0,.98.41.98,1.29,0,.21-.06.44-.19.7-.38.78-2.02,1.46-2.02,2.91,0,.48.18,1.04.64,1.71h-.86c-.92,0-1.68-.75-1.68-1.66,0-1.22.95-2.05,2.89-2.82.63-.25.88-.56.88-.88,0-.21-.11-.41-.27-.61-.07-.09-.22-.2-.4-.2s-.38.11-.57.42c-.3.49-.7.8-1.02.93-.08.03-.16.05-.24.05-.47,0-.91-.52-.91-1.03v-1.23s.53.22,1.33.22c.34,0,.73-.03,1.14-.15.18-.05.36-.08.55-.08.8,0,1.46.58,1.59,1.35.07.3.1.65.1.95,0,.55-.07.99-.07.99-.22.87-.3,1.56-.3,2.1,0,1.19.38,1.64.38,1.64h-1.54c-.34,0-.63-.21-.75-.52Z" style="stroke-width:0px;"/><path d="m4.61,10.34c.73,0,1.05.46,1.05.89,0,.19-.06.37-.17.51-.2.25-.52.35-.81.35-.2,0-.39-.05-.5-.14,0,0-.63-.42-.79-1.29,0,.38.26,1.15.7,1.71.34.43.45.78.45,1.04,0,.41-.26.6-.26.6h-1.1s.34-.55.34-1.33c0-.14-.01-.27-.03-.42-.02-.11-.32-.88-.32-1.62,0-.1,0-.2.02-.29h1.43Zm.24.8s0-.03,0-.05c0-.37-.35-.63-.74-.63h-.63c.03.17.18.61.43.89.11.12.29.16.44.16.04,0,.08,0,.11,0,.18-.03.35-.18.37-.37Z" style="stroke-width:0px;"/><path d="m6.27,10.69c0,.09.04.17.07.22.22.34.7.68,1.69.68h.05v.29c0,.13-.06.26-.18.35-.07.05-.16.09-.27.09-.09,0-.19-.03-.31-.09-.4-.2-.78-.65-1.1-1.25,0,.04.02.07.09.36.29,1.04.82,1.05.88,1.65,0,.03,0,.07,0,.1,0,.4-.28.69-.31.69h.03c.09,0,.35-.03.53-.51.09-.23.28-.33.49-.33h0c.05,0,.39.01.43.3v.75s-.14-.1-.49-.1c-.14,0-.31.01-.52.05-.2.03-.41.05-.62.05h-.81s.22-.52.22-1.17c0-.18-.02-.38-.06-.57-.14-.59-.17-.94-.17-1.23,0-.06,0-.12,0-.18v-.04c.03-.26.24-.46.5-.49.24,0,.33.03.57.07.21.03.4.05.57.05.49,0,.8-.1.8-.1v.48c0,.25-.24.55-.47.55h-.03c-.09,0-.35-.03-.61-.35-.23-.29-.41-.49-.6-.53-.03,0-.07-.01-.11-.01-.09,0-.2.03-.24.09-.02.04-.03.08-.03.12Z" style="stroke-width:0px;"/><path d="m11.53,13.62c0,.23-.08.38-.08.38h-1.14c.15-.22.2-.43.2-.64,0-.74-.73-1.35-.85-1.45-.15-.11-.62-.53-.75-1.26,0,.38.26,1.15.7,1.71.34.44.45.78.45,1.04,0,.41-.26.6-.26.6h-1.1s.31-.54.31-1.31c0-.14,0-.28-.03-.42-.03-.2-.3-.89-.3-1.6,0-.11,0-.22.02-.32h.31s.06.59.44,1.02c.09.11.24.15.36.15.07,0,.13-.01.17-.04.15-.09.2-.2.2-.32,0-.27-.26-.6-.39-.81h1.02s.23.22.29.49c.02.07.03.15.03.22v.03c0,.49-.42.87-.89.87-.09,0-.19-.01-.29-.05-.05-.01-.09-.03-.12-.05.01,0,.03.02.04.03.09.06.18.12.27.16,1.15.57,1.37,1.19,1.37,1.57Z" style="stroke-width:0px;"/><path d="m14.54,13.62c0,.23-.08.38-.08.38h-1.14c.15-.22.2-.43.2-.64,0-.74-.73-1.35-.85-1.45-.15-.11-.62-.53-.75-1.26,0,.38.26,1.15.7,1.71.34.44.45.78.45,1.04,0,.41-.26.6-.26.6h-1.1s.31-.54.31-1.31c0-.14,0-.28-.03-.42-.03-.2-.3-.89-.3-1.6,0-.11,0-.22.02-.32h.31s.06.59.44,1.02c.09.11.24.15.36.15.07,0,.13-.01.17-.04.15-.09.2-.2.2-.32,0-.27-.26-.6-.39-.81h1.02s.23.22.29.49c.02.07.03.15.03.22v.03c0,.49-.42.87-.89.87-.09,0-.19-.01-.29-.05-.05-.01-.09-.03-.12-.05.01,0,.03.02.04.03.09.06.18.12.27.16,1.15.57,1.37,1.19,1.37,1.57Z" style="stroke-width:0px;"/><path d="m16.17,13.73c-.03-.09-.06-.18-.06-.3,0-.26.12-.6.55-.99.32-.29.46-.66.46-1,0-.48-.28-.89-.67-.89-.03,0-.07,0-.11.01,0,0,.51.21.51.67,0,.11-.03.23-.1.37-.2.4-1.05.76-1.05,1.52,0,.25.09.54.33.89h-.45c-.48,0-.87-.39-.87-.86,0-.63.49-1.07,1.5-1.46.33-.13.46-.29.46-.46,0-.11-.06-.21-.14-.32-.03-.05-.11-.11-.21-.11s-.2.05-.3.22c-.16.26-.37.42-.53.48-.04.02-.08.03-.12.03-.24,0-.47-.27-.47-.54v-.64s.28.12.69.12c.18,0,.38-.02.59-.08.09-.03.19-.04.29-.04.42,0,.76.3.83.7.04.16.05.34.05.49,0,.29-.04.52-.04.52-.11.45-.16.81-.16,1.09,0,.62.2.85.2.85h-.8c-.17,0-.33-.11-.39-.27Z" style="stroke-width:0px;"/><path d="m20.59,10.34s-.38.47-.38,1.24c0,.24.04.52.14.82.14.4.23.72.23.98,0,.12-.02.23-.06.32-.04.09-.2.3-.46.3h-.94c.21-.32.36-.63.36-1,0-.29-.1-.6-.34-.99h0c-.09-.14-.17-.28-.24-.4h0c-.26-.49-.23-.69-.33-.91-.06-.12-.21-.19-.36-.19-.14,0-.27.05-.3.17-.01.04-.02.08-.02.12,0,.22.18.4.34.59.7.79.87,1.39.87,1.75,0,.08,0,.15-.02.2-.07.31-.37.65-.62.65h-.83c.21-.45.29-.92.29-1.37,0-.62-.14-1.21-.27-1.65-.02-.06-.02-.11-.02-.16,0-.26.19-.47.54-.47h.11c.31,0,.51.17.55.4.06.3.19.73.54,1.11.32.34.88.8.98,1.3v-.03c0-.09-.02-.45-.29-.77-.18-.22-.45-.5-.63-.77-.15-.23-.27-.49-.27-.76,0-.03,0-.06,0-.09v-.02c.02-.2.2-.38.44-.38h.98Z" style="stroke-width:0px;"/><path d="m21.18,10.69c0,.09.04.17.07.22.22.34.7.68,1.69.68h.05v.29c0,.13-.06.26-.18.35-.07.05-.16.09-.27.09-.09,0-.19-.03-.31-.09-.4-.2-.78-.65-1.1-1.25,0,.04.02.07.09.36.29,1.04.82,1.05.88,1.65,0,.03,0,.07,0,.1,0,.4-.28.69-.31.69h.03c.09,0,.35-.03.53-.51.09-.23.28-.33.49-.33h0c.05,0,.39.01.43.3v.75s-.14-.1-.49-.1c-.14,0-.31.01-.52.05-.2.03-.41.05-.62.05h-.81s.22-.52.22-1.17c0-.18-.02-.38-.06-.57-.14-.59-.17-.94-.17-1.23,0-.06,0-.12,0-.18v-.04c.03-.26.24-.46.5-.49.24,0,.33.03.57.07.21.03.4.05.57.05.49,0,.8-.1.8-.1v.48c0,.25-.24.55-.47.55h-.03c-.09,0-.35-.03-.61-.35-.23-.29-.41-.49-.6-.53-.03,0-.07-.01-.12-.01-.09,0-.2.03-.24.09-.02.04-.03.08-.03.12Z" style="stroke-width:0px;"/><path d="m26.55,10.34s-.38.47-.38,1.24c0,.24.04.52.14.82.14.4.23.72.23.98,0,.12-.02.23-.06.32-.04.09-.2.3-.46.3h-.94c.21-.32.36-.63.36-1,0-.29-.1-.6-.34-.99h0c-.09-.14-.17-.28-.24-.4h0c-.26-.49-.23-.69-.33-.91-.06-.12-.21-.19-.36-.19-.14,0-.27.05-.3.17-.01.04-.02.08-.02.12,0,.22.18.4.34.59.7.79.87,1.39.87,1.75,0,.08,0,.15-.02.2-.07.31-.37.65-.62.65h-.83c.21-.45.29-.92.29-1.37,0-.62-.14-1.21-.27-1.65-.02-.06-.02-.11-.02-.16,0-.26.19-.47.54-.47h.11c.31,0,.51.17.55.4.06.3.19.73.54,1.11.32.34.88.8.98,1.3v-.03c0-.09-.02-.45-.29-.77-.18-.22-.45-.5-.63-.77-.15-.23-.27-.49-.27-.76,0-.03,0-.06,0-.09v-.02c.02-.2.2-.38.44-.38h.98Z" style="stroke-width:0px;"/></svg>